<?xml version="1.0" encoding="utf-8"?>
<!-- Generator: Adobe Illustrator 25.1.0, SVG Export Plug-In . SVG Version: 6.00 Build 0)  -->
<svg version="1.1" id="Layer_1" xmlns="http://www.w3.org/2000/svg" xmlns:xlink="http://www.w3.org/1999/xlink" x="0px" y="0px"
	 viewBox="0 0 455 51" style="enable-background:new 0 0 455 51;" xml:space="preserve">
<style type="text/css">
	.st0{fill:#898989;}
</style>
<g>
	<g>
		<path class="st0" d="M440.57,43.93c-0.05-0.02-0.1-0.02-0.15-0.02c-0.08,0-0.16,0-0.24,0c-0.08,0-0.16,0-0.24,0
			c-0.08,0-0.15-0.01-0.22-0.04c-0.09-0.04-0.18-0.05-0.28-0.05c-0.14,0.01-0.28-0.01-0.42-0.04c-0.16-0.04-0.31-0.07-0.47-0.11
			c-0.08-0.02-0.16-0.05-0.24-0.08c-0.4-0.15-0.8-0.31-1.18-0.5c-0.04-0.02-0.08-0.04-0.12-0.06c-0.1-0.06-0.14-0.15-0.11-0.26
			c0.02-0.08,0.03-0.17,0.05-0.25c0.12-0.45,0.24-0.89,0.36-1.34c0.11-0.4,0.21-0.79,0.32-1.19c0.02-0.08,0.05-0.16,0.08-0.24
			c0.01-0.02,0.02-0.04,0.02-0.06c0.02-0.04,0.06-0.05,0.1-0.02c0.02,0.02,0.03,0.03,0.05,0.05c0.02,0.03,0.04,0.06,0.06,0.09
			c0.15,0.23,0.35,0.39,0.59,0.49c0.16,0.07,0.34,0.11,0.51,0.13c0.28,0.03,0.56,0.02,0.84,0.01c0.13-0.01,0.25-0.04,0.36-0.09
			c0.17-0.07,0.32-0.16,0.45-0.28c0.09-0.07,0.16-0.16,0.23-0.24c0.22-0.27,0.41-0.57,0.58-0.87c0.18-0.33,0.33-0.68,0.46-1.04
			c0.13-0.36,0.24-0.73,0.34-1.1c0.04-0.13,0.06-0.27,0.07-0.4c0.01-0.07,0.02-0.13,0.04-0.2c0.03-0.11,0.06-0.23,0.07-0.34
			c0.01-0.06,0.01-0.13,0.01-0.19c0-0.06,0-0.12,0-0.18c0-0.08,0.01-0.15,0.04-0.22c0.04-0.12,0.06-0.24,0.06-0.37
			c0-0.04,0-0.08,0-0.12c0-0.56,0-1.11,0-1.67c0-0.1,0-0.19-0.02-0.29c-0.01-0.05-0.03-0.1-0.04-0.15c-0.01-0.03,0-0.06,0.01-0.08
			c0.02-0.03,0.04-0.04,0.07-0.05c0.04-0.01,0.08,0,0.12,0.01c0.06,0.02,0.12,0.05,0.18,0.07c0.18,0.08,0.35,0.16,0.52,0.25
			c1.23,0.58,2.45,1.16,3.68,1.75c0.1,0.05,0.2,0.1,0.3,0.16c0.03,0.01,0.06,0.03,0.08,0.05c0.05,0.04,0.07,0.09,0.07,0.15
			c0,0.04-0.01,0.07-0.02,0.11c-0.08,0.33-0.17,0.66-0.27,0.99c-0.19,0.65-0.42,1.29-0.68,1.91c-0.02,0.05-0.04,0.1-0.06,0.14
			c-0.12,0.28-0.24,0.55-0.37,0.83c-0.04,0.09-0.08,0.18-0.13,0.27c-0.35,0.66-0.74,1.3-1.17,1.92c-0.13,0.19-0.28,0.36-0.43,0.53
			c-0.03,0.04-0.07,0.07-0.1,0.11c-0.05,0.06-0.1,0.12-0.14,0.19c-0.04,0.06-0.08,0.12-0.14,0.17c-0.31,0.3-0.65,0.57-0.99,0.82
			c-0.08,0.06-0.16,0.12-0.24,0.18c-0.32,0.24-0.68,0.41-1.06,0.53c-0.25,0.08-0.5,0.14-0.75,0.19c-0.04,0.01-0.07,0.01-0.11,0.02
			c-0.04,0-0.08,0.01-0.12,0.03C440.71,43.93,440.64,43.93,440.57,43.93z"/>
		<path class="st0" d="M447.94,31.99c-0.01,0.01-0.02,0.01-0.03,0.02c-0.03,0.04-0.07,0.06-0.11,0.06c-0.06,0.01-0.11,0.01-0.17,0
			c-0.08-0.01-0.13-0.05-0.17-0.12c-0.04-0.08-0.07-0.17-0.1-0.26c-0.07-0.25-0.15-0.49-0.22-0.74c-0.06-0.19-0.11-0.38-0.17-0.57
			c-0.02-0.07-0.03-0.13-0.04-0.2c0-0.02,0-0.04,0-0.06c0-0.05,0.02-0.09,0.06-0.11c0.03-0.02,0.06-0.03,0.08-0.05
			c0.01-0.01,0.02-0.02,0.04-0.03c0.01-0.01,0.01-0.04,0-0.04c-0.01-0.01-0.02-0.02-0.04-0.03c-0.03-0.01-0.07-0.02-0.1-0.03
			c-0.1-0.02-0.16-0.07-0.19-0.16c-0.01-0.03-0.02-0.07-0.03-0.1c-0.07-0.24-0.14-0.47-0.2-0.71c-0.28-0.95-0.56-1.9-0.84-2.85
			c-0.05-0.17-0.1-0.35-0.15-0.52c-0.02-0.08-0.04-0.16-0.06-0.25c-0.01-0.04-0.01-0.07-0.01-0.11c0-0.07,0.05-0.11,0.1-0.12
			c0.04-0.01,0.07-0.01,0.11-0.01c0.16,0,0.31-0.01,0.47-0.01c0.17,0,0.35-0.01,0.52-0.01c0.05,0,0.1,0,0.14,0.02
			c0.04,0.01,0.06,0.04,0.08,0.07c0.01,0.02,0.02,0.04,0.02,0.06c0.04,0.1,0.07,0.2,0.11,0.29c0.03,0.09,0.06,0.18,0.08,0.27
			c0.1,0.39,0.2,0.79,0.3,1.18c0.06,0.24,0.12,0.49,0.16,0.73c0.03,0.18,0.07,0.36,0.11,0.54c0.04,0.15,0.05,0.31,0.07,0.47
			c0.01,0.09,0.02,0.17,0.05,0.25c0.03,0.08,0.04,0.15,0.04,0.24c0,0.09,0,0.19,0,0.28c0,0.12,0.01,0.24,0.04,0.36
			c0.01,0.05,0.03,0.1,0.03,0.15c0,0.03,0.01,0.06,0.03,0.09C447.94,30.65,447.94,31.32,447.94,31.99z"/>
		<path class="st0" d="M426.74,7.07c0.04,0.02,0.08,0.03,0.12,0.03c0.15,0.01,0.3,0.04,0.44,0.06c0.11,0.02,0.23,0.03,0.35,0.03
			c0.44,0,0.88,0,1.32,0c0.33,0,0.66,0,0.99,0c0.04,0,0.08,0,0.12,0c0.02,0,0.04,0,0.06,0.01c0.05,0.01,0.08,0.05,0.09,0.1
			c0,0.02,0.01,0.04,0.01,0.06c0,0.04,0,0.09,0,0.13c-0.01,0.12-0.02,0.23-0.03,0.35c-0.01,0.1-0.02,0.2-0.03,0.3
			c-0.02,0.16-0.03,0.31-0.05,0.47c-0.01,0.06-0.02,0.11-0.04,0.16c-0.02,0.08-0.08,0.13-0.17,0.13c-0.03,0-0.06,0-0.08,0
			c-0.09,0-0.18,0-0.27,0c-1.05,0-2.1,0-3.15,0c-0.07,0-0.14,0-0.22,0c-0.06,0-0.11-0.01-0.17-0.02c-0.05-0.01-0.08-0.04-0.1-0.08
			c-0.01-0.03-0.02-0.06-0.02-0.09c0-0.03,0-0.06,0-0.08c0-0.41,0-0.81,0-1.22c0-0.06,0-0.11,0.02-0.17
			c0.01-0.02,0.01-0.03,0.02-0.05c0.02-0.05,0.06-0.08,0.11-0.09c0.06-0.01,0.12-0.01,0.18-0.02c0.05,0,0.1,0,0.16-0.01
			c0.04,0,0.08-0.01,0.12-0.03C426.58,7.07,426.66,7.07,426.74,7.07z"/>
		<path class="st0" d="M425.85,27.45c0.03-0.02,0.05-0.06,0.05-0.09c0-0.04,0.01-0.08,0.01-0.12c0-0.04,0-0.09,0-0.13
			c0-0.03,0.01-0.06,0.02-0.09c0.02-0.06,0.08-0.1,0.15-0.1c0.05,0,0.1,0.01,0.14,0.02c0.29,0.04,0.57,0.09,0.86,0.13
			c0.23,0.04,0.46,0.07,0.69,0.11c0.05,0.01,0.1,0.02,0.15,0.03c0.02,0,0.04,0.01,0.06,0.02c0.05,0.02,0.08,0.06,0.09,0.12
			c0,0.03,0,0.06,0,0.08c0,0.23-0.01,0.47-0.04,0.7c-0.02,0.16-0.04,0.31-0.06,0.47c0,0.04-0.01,0.07-0.02,0.11
			c-0.02,0.06-0.06,0.1-0.13,0.11c-0.07,0.01-0.14,0.01-0.21-0.02c-0.06-0.02-0.11-0.04-0.17-0.06c-0.24-0.08-0.49-0.16-0.73-0.24
			c-0.21-0.07-0.41-0.15-0.61-0.24c-0.04-0.02-0.07-0.04-0.11-0.06c-0.03-0.02-0.05-0.04-0.05-0.08c-0.01-0.06-0.02-0.12-0.02-0.18
			c0-0.04,0-0.07-0.01-0.11c0-0.03-0.02-0.06-0.05-0.08C425.85,27.64,425.85,27.54,425.85,27.45z"/>
		<path class="st0" d="M447.94,32.86C447.94,32.86,447.93,32.86,447.94,32.86c-0.05,0.07-0.08,0.08-0.13,0.02
			c-0.1-0.1-0.15-0.22-0.17-0.35c-0.01-0.11,0.09-0.16,0.16-0.14c0.04,0.01,0.08,0.03,0.11,0.07c0.01,0.01,0.02,0.02,0.03,0.04
			C447.94,32.62,447.94,32.74,447.94,32.86z"/>
		<path class="st0" d="M437.93,25c-0.03,0-0.06,0-0.08,0c-0.19,0.02-0.38,0.01-0.57,0.02c-0.08,0-0.17,0.01-0.25,0.01
			c-0.06,0-0.11,0-0.17,0.01c-0.22,0-0.44,0.01-0.66,0.02c-0.11,0.01-0.23,0-0.34,0.01c-0.19,0-0.38,0.01-0.57,0.02
			c-0.06,0-0.11,0-0.17,0c-0.13,0-0.27,0-0.4,0.02c-0.04,0.01-0.08,0.01-0.12,0.01c-0.08,0.01-0.16,0.01-0.24,0.02
			c-0.06,0-0.12,0.01-0.18,0.01c-0.13,0.01-0.26,0.01-0.39,0.02c-0.07,0-0.14,0-0.21,0.01c-0.78,0.01-1.55,0.01-2.33,0.01
			c-0.71,0-1.43,0-2.14,0c-0.08,0-0.16,0-0.24-0.01c-0.04,0-0.08-0.01-0.12-0.02c-0.06-0.01-0.09-0.07-0.09-0.13
			c0-0.01,0-0.02,0-0.02c0.02-0.17,0.04-0.34,0.06-0.52c0.01-0.11,0.02-0.22,0.03-0.32c0.01-0.08,0.02-0.17,0.03-0.25
			c0.02-0.18,0.04-0.35,0.06-0.53c0.01-0.1,0.02-0.21,0.03-0.31c0.01-0.12,0.03-0.23,0.04-0.35c0.01-0.08,0.02-0.17,0.03-0.25
			c0.01-0.12,0.02-0.23,0.03-0.35c0.01-0.13,0.03-0.26,0.04-0.38c0.01-0.09,0.02-0.18,0.03-0.28c0.02-0.18,0.04-0.36,0.06-0.54
			c0.02-0.17,0.04-0.34,0.06-0.5c0.01-0.1,0.02-0.21,0.03-0.31c0.01-0.09,0.02-0.18,0.03-0.28c0.01-0.1,0.03-0.21,0.04-0.31
			c0.02-0.18,0.04-0.36,0.06-0.54c0.02-0.19,0.04-0.38,0.06-0.56c0.01-0.11,0.02-0.22,0.03-0.32c0.01-0.12,0.03-0.25,0.04-0.37
			c0-0.01,0-0.02,0.01-0.04c0.02-0.09,0.07-0.14,0.16-0.15c0.08-0.01,0.17-0.02,0.25-0.02c0.11-0.01,0.22-0.01,0.33-0.02
			c0.05,0,0.1,0,0.14-0.01c0.09,0,0.18-0.01,0.27-0.01c0.07,0,0.14-0.01,0.22-0.01c0.14-0.01,0.29-0.01,0.43-0.02
			c0.08,0,0.17,0,0.25-0.01c0.15-0.01,0.31-0.01,0.46-0.02c0.08,0,0.17,0,0.25-0.01c0.15-0.01,0.3-0.01,0.45-0.02
			c0.09,0,0.18,0,0.27-0.01c0.15-0.01,0.31-0.01,0.46-0.02c0.07,0,0.14,0,0.22-0.01c0.17,0,0.33-0.01,0.49-0.02
			c0.08-0.01,0.17,0,0.25-0.01c0.13,0,0.27-0.01,0.4-0.02c0.08,0,0.17,0,0.25-0.01c0.12,0,0.23-0.01,0.35-0.02
			c0.04,0,0.09,0,0.13-0.01c0.12,0,0.25-0.01,0.37-0.02c0.06-0.01,0.11,0,0.17-0.01c0.08,0,0.15-0.01,0.23-0.01
			c0.16-0.02,0.32,0,0.48,0.05c0.06,0.02,0.11,0.04,0.17,0.06c0.68,0.26,1.35,0.52,2.03,0.78c0.03,0.01,0.05,0.02,0.08,0.03
			c0.14,0.05,0.24,0.14,0.31,0.27c0.02,0.03,0.03,0.06,0.05,0.08c0.54,0.97,1.09,1.94,1.63,2.91c0.25,0.44,0.49,0.88,0.74,1.32
			c0.04,0.07,0.07,0.14,0.08,0.21c0.01,0.04,0.01,0.09,0,0.13c-0.01,0.04-0.02,0.09-0.03,0.13c-0.12,0.46-0.25,0.92-0.38,1.39
			c-0.01,0.04-0.02,0.08-0.04,0.11c-0.03,0.08-0.09,0.12-0.17,0.13c-0.08,0.01-0.17,0.02-0.25,0.02c-0.15,0.01-0.31,0.01-0.46,0.02
			c-0.06,0.01-0.13,0-0.19,0.01c-0.1,0-0.19,0.01-0.29,0.02c-0.07,0-0.14,0.01-0.22,0.01c-0.11,0.01-0.22,0.01-0.33,0.02
			c-0.07,0-0.14,0-0.22,0.01c-0.12,0.01-0.23,0.01-0.35,0.02c-0.07,0-0.14,0-0.22,0.01c-0.13,0.01-0.26,0.01-0.39,0.02
			C438.18,25,438.06,25,437.93,25C437.93,25,437.93,25,437.93,25z"/>
		<path class="st0" d="M432.29,9.25c0.55,0,1.1,0,1.65,0c0.03,0,0.06,0,0.1,0c0.08,0,0.15,0.04,0.2,0.1
			c0.02,0.02,0.03,0.05,0.05,0.07c0.02,0.04,0.05,0.08,0.07,0.13c0.74,1.33,1.49,2.66,2.23,3.98c0.51,0.92,1.03,1.83,1.54,2.75
			c0.07,0.12,0.13,0.24,0.19,0.36c0.01,0.03,0.02,0.05,0.03,0.08c0.02,0.06-0.02,0.1-0.06,0.12c-0.06,0.02-0.12,0.03-0.18,0.03
			c-0.04,0-0.08,0-0.12,0c-0.19,0-0.39,0-0.58,0.01c-0.17,0.01-0.34,0.01-0.51,0.01c-0.02,0-0.04,0-0.06,0
			c-0.13,0-0.26-0.02-0.39-0.06c-0.06-0.02-0.11-0.04-0.17-0.06c-1.03-0.4-2.06-0.8-3.08-1.2c-0.98-0.38-1.97-0.76-2.95-1.15
			c-0.09-0.04-0.18-0.07-0.27-0.11c-0.02-0.01-0.04-0.02-0.06-0.03c-0.02-0.01-0.04-0.03-0.05-0.05c-0.02-0.04-0.03-0.08-0.03-0.13
			c0-0.03,0-0.06,0-0.08c0-0.04,0.01-0.09,0.01-0.13c0.01-0.18,0.03-0.36,0.05-0.54c0.03-0.23,0.05-0.46,0.08-0.7
			c0.02-0.17,0.04-0.34,0.06-0.52c0.01-0.1,0.02-0.21,0.03-0.31c0.01-0.08,0.02-0.16,0.03-0.24c0.01-0.11,0.02-0.22,0.04-0.32
			c0.01-0.08,0.02-0.17,0.03-0.25c0.01-0.11,0.02-0.22,0.03-0.32c0.01-0.1,0.02-0.19,0.03-0.29c0.02-0.16,0.04-0.31,0.04-0.47
			c0-0.15,0.03-0.3,0.05-0.44c0.01-0.03,0.02-0.06,0.02-0.09c0.02-0.08,0.08-0.12,0.16-0.13c0.03,0,0.06,0,0.08,0
			c0.06,0,0.11,0,0.17,0C431.28,9.25,431.78,9.25,432.29,9.25C432.29,9.25,432.29,9.25,432.29,9.25z"/>
		<path class="st0" d="M435.98,9.25c0.35,0,0.7,0,1.05,0c0.04,0,0.08,0,0.12,0c0.13,0,0.25,0.05,0.35,0.13
			c0.03,0.02,0.05,0.05,0.08,0.07c0.57,0.57,1.15,1.14,1.72,1.71c0.04,0.04,0.07,0.07,0.11,0.11c0.07,0.08,0.14,0.17,0.19,0.26
			c0.03,0.05,0.06,0.1,0.1,0.14c0.22,0.21,0.41,0.45,0.58,0.69c0.21,0.29,0.42,0.59,0.62,0.89c0.08,0.13,0.17,0.25,0.27,0.37
			c0.03,0.04,0.06,0.08,0.09,0.13c0.22,0.36,0.44,0.72,0.66,1.08c0.23,0.38,0.4,0.78,0.52,1.21c0.02,0.09,0.05,0.17,0.08,0.25
			c0.02,0.07,0.04,0.14,0.04,0.21c0,0.02,0,0.04,0,0.06c-0.01,0.04-0.03,0.07-0.07,0.09c-0.02,0.01-0.05,0.01-0.07,0.01
			c-0.13,0.01-0.26,0.02-0.4,0.02c-0.09,0-0.18,0.01-0.27,0.01c-0.01,0-0.02,0-0.04,0c-0.22,0.01-0.43,0.02-0.65,0.03
			c-0.08,0-0.17,0.01-0.25,0.01c-0.04,0-0.09,0.01-0.13,0.01c-0.22,0-0.44,0-0.65,0.01c-0.26,0.01-0.52,0.01-0.77,0.02
			c-0.07,0-0.14,0.01-0.21,0.01c-0.05,0-0.1,0-0.14-0.01c-0.08-0.01-0.14-0.05-0.19-0.12c-0.02-0.03-0.03-0.05-0.05-0.08
			c-0.13-0.23-0.27-0.47-0.4-0.7c-0.7-1.24-1.39-2.49-2.09-3.73c-0.45-0.8-0.9-1.61-1.35-2.41c-0.05-0.09-0.1-0.18-0.14-0.27
			c-0.02-0.03-0.03-0.06-0.04-0.1c-0.02-0.05,0.01-0.11,0.06-0.13c0.02-0.01,0.05-0.01,0.07-0.01c0.06,0,0.12,0,0.18,0
			C435.3,9.25,435.64,9.25,435.98,9.25C435.98,9.25,435.98,9.25,435.98,9.25z"/>
		<path class="st0" d="M425.9,20.96c0-0.88,0-1.76,0-2.63c0-0.14,0-0.27,0.01-0.41c0-0.05,0.01-0.1,0.02-0.14
			c0.01-0.06,0.05-0.1,0.11-0.11c0.05-0.01,0.1-0.02,0.14-0.02c0.22-0.01,0.44-0.02,0.66-0.03c0.2-0.01,0.39-0.02,0.59-0.02
			c0.02,0,0.05,0,0.07-0.01c0.1-0.02,0.21-0.02,0.31-0.02c0.34-0.01,0.68-0.02,1.01-0.02c0.04,0,0.08,0,0.12,0
			c0.02,0,0.04,0,0.06,0.01c0.05,0.01,0.08,0.04,0.09,0.09c0.01,0.04,0.01,0.07,0.01,0.11c-0.01,0.14-0.01,0.29-0.02,0.43
			c-0.02,0.12-0.02,0.23-0.03,0.35c-0.01,0.09-0.02,0.18-0.03,0.28c-0.01,0.14-0.03,0.28-0.04,0.42c-0.01,0.1-0.02,0.21-0.04,0.31
			c-0.01,0.08-0.02,0.16-0.03,0.24c-0.01,0.11-0.02,0.22-0.03,0.32c-0.01,0.08-0.02,0.17-0.03,0.25c-0.01,0.11-0.03,0.22-0.04,0.32
			c-0.01,0.1-0.02,0.21-0.03,0.31c-0.01,0.08-0.02,0.17-0.03,0.25c-0.02,0.16-0.04,0.33-0.06,0.49c-0.02,0.17-0.04,0.34-0.06,0.52
			c-0.02,0.18-0.04,0.36-0.06,0.54c-0.01,0.12-0.02,0.23-0.03,0.35c-0.01,0.12-0.02,0.24-0.04,0.36c-0.01,0.11-0.02,0.22-0.03,0.34
			c-0.01,0.13-0.03,0.26-0.04,0.4c-0.01,0.11-0.02,0.22-0.03,0.32c-0.02,0.14-0.03,0.28-0.05,0.42c0,0.03-0.01,0.06-0.02,0.08
			c-0.02,0.06-0.07,0.1-0.13,0.11c-0.01,0-0.02,0-0.02,0c-0.13,0.01-0.27,0-0.39-0.05c-0.03-0.01-0.07-0.03-0.1-0.05
			c-0.49-0.23-0.98-0.47-1.47-0.7c-0.04-0.02-0.07-0.03-0.11-0.05c-0.04-0.02-0.07-0.04-0.1-0.07c-0.06-0.04-0.09-0.1-0.1-0.17
			c0-0.02,0-0.04,0-0.06c0-0.14-0.01-0.27-0.01-0.41C425.9,22.72,425.9,21.84,425.9,20.96C425.9,20.96,425.9,20.96,425.9,20.96z"/>
		<path class="st0" d="M427.98,9.25c0.56,0,1.11,0,1.67,0c0.05,0,0.1,0,0.16,0c0.04,0,0.07,0.01,0.11,0.01
			c0.06,0.01,0.1,0.06,0.11,0.12c0,0.06,0.01,0.11,0,0.17c-0.02,0.17-0.04,0.34-0.06,0.5c-0.02,0.17-0.04,0.34-0.06,0.52
			c-0.02,0.17-0.04,0.34-0.06,0.52c-0.01,0.1-0.02,0.21-0.03,0.31c-0.01,0.11-0.02,0.22-0.04,0.34c-0.01,0.08-0.02,0.17-0.03,0.25
			c-0.01,0.12-0.02,0.23-0.03,0.35c-0.01,0.11-0.02,0.22-0.03,0.32c-0.01,0.12-0.03,0.23-0.04,0.35c-0.01,0.12-0.02,0.25-0.03,0.37
			c-0.01,0.06-0.02,0.12-0.02,0.18c-0.02,0.1-0.03,0.21-0.05,0.31c-0.01,0.04-0.02,0.09-0.03,0.13c-0.01,0.05-0.05,0.08-0.1,0.07
			c-0.04,0-0.07-0.01-0.11-0.02c-0.05-0.01-0.09-0.03-0.14-0.05c-0.93-0.36-1.85-0.72-2.78-1.08c-0.09-0.03-0.18-0.07-0.27-0.11
			c-0.03-0.01-0.06-0.03-0.09-0.04c-0.07-0.04-0.11-0.1-0.12-0.18c0-0.02,0-0.05,0-0.07c0-0.14-0.01-0.28-0.01-0.42
			c0-0.75,0-1.49,0-2.24c0-0.11,0-0.23,0-0.34c0-0.05,0.01-0.1,0.02-0.15c0.01-0.05,0.04-0.08,0.09-0.1
			c0.03-0.01,0.07-0.02,0.11-0.02c0.05,0,0.1,0,0.14,0C426.84,9.25,427.41,9.25,427.98,9.25C427.98,9.25,427.98,9.25,427.98,9.25z"
			/>
		<path class="st0" d="M437.09,25.34c0.13-0.02,0.26-0.01,0.39-0.02c0.08,0,0.17-0.01,0.25-0.01c0.08,0,0.15-0.01,0.23-0.01
			c0.12-0.01,0.25-0.01,0.37-0.02c0.07,0,0.14,0,0.22-0.01c0.12-0.01,0.24-0.01,0.36-0.02c0.07,0,0.14,0,0.22-0.01
			c0.13-0.01,0.26-0.01,0.39-0.02c0.06,0,0.13,0,0.19-0.01c0.21-0.01,0.41-0.01,0.62-0.02c0.18,0,0.35,0,0.53-0.01
			c0.06,0,0.12,0,0.18,0c0.02,0,0.05,0,0.07,0c0.05,0.01,0.1,0.05,0.1,0.11c0,0.04,0,0.07-0.01,0.11c-0.03,0.12-0.06,0.24-0.09,0.36
			c-0.14,0.53-0.29,1.07-0.43,1.6c-0.02,0.09-0.05,0.17-0.08,0.25c-0.03,0.08-0.08,0.13-0.17,0.13c-0.04,0-0.07,0-0.11,0
			c-0.16-0.01-0.31,0-0.47,0.02c-0.05,0-0.1,0.01-0.14,0.03c-0.11,0.04-0.23,0.06-0.34,0.06c-0.11,0-0.23,0-0.34,0
			c-0.35-0.01-0.69,0.03-1.02,0.16c-0.04,0.01-0.07,0.03-0.11,0.04c-0.14,0.06-0.29,0.06-0.44,0.01c-0.08-0.03-0.15-0.06-0.22-0.11
			c-0.19-0.12-0.36-0.27-0.5-0.45c-0.03-0.04-0.06-0.08-0.09-0.12c-0.04-0.05-0.06-0.1-0.07-0.16c-0.01-0.05-0.02-0.09-0.03-0.14
			c-0.01-0.05-0.03-0.1-0.08-0.13c-0.05-0.03-0.1-0.07-0.15-0.1c-0.14-0.08-0.27-0.17-0.41-0.25c-0.17-0.1-0.34-0.2-0.51-0.3
			c-0.04-0.03-0.09-0.05-0.14-0.08c-0.06-0.04-0.12-0.07-0.17-0.11c-0.09-0.06-0.18-0.11-0.28-0.13c-0.15-0.04-0.3-0.08-0.45-0.1
			c-0.1-0.01-0.19-0.03-0.28-0.06c-0.07-0.02-0.13-0.03-0.2-0.03c-0.08,0-0.15-0.01-0.22-0.04c-0.09-0.03-0.18-0.04-0.27-0.06
			c-0.07-0.01-0.14-0.02-0.2-0.03c-0.06-0.01-0.13-0.02-0.19-0.04c-0.06-0.02-0.13-0.04-0.19-0.07c-0.02-0.01-0.04-0.02-0.03-0.03
			c0.01-0.02,0.03-0.02,0.04-0.02c0.08,0,0.17-0.01,0.25-0.02c0.04-0.01,0.08,0,0.12-0.01c0.16,0,0.32-0.01,0.48-0.02
			c0.06,0,0.11,0,0.17-0.01c0.14-0.01,0.29-0.01,0.43-0.02c0.04,0,0.09,0,0.13,0c0.16,0,0.32-0.01,0.48-0.02c0.05,0,0.1,0,0.16,0
			c0.15,0,0.31-0.01,0.46-0.02c0.05,0,0.1,0,0.14,0c0.14,0,0.28-0.01,0.42-0.02c0.04,0,0.09,0,0.13,0c0.15,0,0.31-0.01,0.46-0.02
			c0.09-0.01,0.19-0.01,0.28-0.01C436.99,25.35,437.04,25.34,437.09,25.34z"/>
		<path class="st0" d="M442.72,25.11c0.06,0,0.11,0,0.17,0c0.03,0,0.06,0.01,0.1,0.01c0.05,0.01,0.08,0.03,0.11,0.07
			c0.06,0.08,0.11,0.16,0.16,0.24c0.19,0.34,0.38,0.68,0.57,1.02c0.51,0.91,1.02,1.83,1.53,2.74c0.02,0.04,0.05,0.08,0.07,0.13
			c0.03,0.05,0.05,0.11,0.07,0.17c0.01,0.05-0.01,0.08-0.06,0.08c0,0-0.01,0-0.01,0c-0.05,0-0.1-0.01-0.16-0.01
			c-0.16-0.02-0.32-0.04-0.48-0.06c-0.14-0.02-0.27-0.04-0.41-0.06c-0.18-0.03-0.37-0.06-0.55-0.09c-0.17-0.03-0.35-0.05-0.52-0.08
			c-0.19-0.03-0.37-0.06-0.56-0.09c-0.17-0.03-0.34-0.05-0.51-0.08c-0.17-0.03-0.35-0.06-0.52-0.08c-0.04-0.01-0.09-0.02-0.13-0.02
			c-0.09-0.02-0.16-0.06-0.21-0.13c-0.02-0.03-0.04-0.05-0.06-0.08c-0.12-0.17-0.24-0.35-0.36-0.51c-0.05-0.06-0.08-0.12-0.09-0.19
			c-0.01-0.04-0.01-0.08,0-0.12c0.01-0.04,0.02-0.09,0.03-0.13c0.11-0.4,0.22-0.8,0.33-1.2c0.11-0.41,0.22-0.82,0.33-1.22
			c0.01-0.03,0.02-0.07,0.03-0.1c0.01-0.04,0.04-0.06,0.07-0.08c0.07-0.03,0.14-0.05,0.22-0.06c0.16-0.01,0.31-0.02,0.47-0.03
			c0.04,0,0.07,0,0.11-0.01C442.53,25.12,442.62,25.11,442.72,25.11C442.72,25.11,442.72,25.11,442.72,25.11z"/>
		<path class="st0" d="M425.9,15.19c0-0.57,0-1.14,0-1.7c0-0.06,0-0.11,0-0.17c0-0.02,0-0.05,0.01-0.07
			c0.01-0.05,0.05-0.08,0.11-0.08c0.07,0,0.14,0.02,0.2,0.04c0.05,0.01,0.09,0.03,0.14,0.05c0.92,0.36,1.85,0.72,2.77,1.08
			c0.06,0.02,0.12,0.05,0.18,0.08c0.03,0.01,0.05,0.03,0.07,0.04c0.04,0.03,0.06,0.06,0.07,0.11c0,0.02,0.01,0.05,0.01,0.07
			c0,0.07-0.01,0.14-0.02,0.22c-0.01,0.11-0.03,0.22-0.04,0.32c-0.01,0.11-0.02,0.22-0.03,0.34c-0.01,0.07-0.01,0.14-0.02,0.2
			c-0.01,0.11-0.02,0.22-0.04,0.32c-0.01,0.1-0.02,0.19-0.03,0.29c-0.01,0.11-0.02,0.22-0.03,0.32c-0.01,0.12-0.03,0.24-0.04,0.36
			c0,0.02,0,0.03-0.01,0.05c-0.02,0.09-0.07,0.13-0.15,0.14c-0.08,0.01-0.15,0.02-0.23,0.02c-0.23,0.01-0.45,0.02-0.68,0.03
			c-0.22,0.01-0.43,0.03-0.65,0.04c-0.06,0-0.12,0-0.18,0.01c-0.25,0-0.49,0.01-0.74,0.02c-0.14,0.01-0.29,0-0.43,0.01
			c-0.04,0-0.08,0-0.12-0.02c-0.04-0.02-0.08-0.05-0.09-0.09c-0.02-0.04-0.03-0.08-0.03-0.12c0-0.05,0-0.1,0-0.16
			C425.9,16.35,425.9,15.77,425.9,15.19C425.9,15.19,425.9,15.19,425.9,15.19z"/>
		<path class="st0" d="M437.27,36.27c0.07,0,0.15,0,0.22,0c0.23-0.01,0.43,0.07,0.61,0.2c0.04,0.03,0.07,0.06,0.08,0.1
			c0.01,0.02,0.01,0.05,0,0.07c0,0.02-0.01,0.03-0.02,0.05c-0.05,0.12-0.09,0.25-0.11,0.38c-0.05,0.3-0.13,0.59-0.21,0.88
			c-0.2,0.76-0.41,1.51-0.62,2.27c-0.14,0.52-0.28,1.05-0.42,1.57c-0.03,0.12-0.06,0.23-0.09,0.35c-0.03,0.12-0.06,0.23-0.1,0.35
			c-0.01,0.03-0.03,0.07-0.05,0.1c-0.03,0.06-0.1,0.07-0.16,0.03c-0.02-0.02-0.04-0.04-0.06-0.06c-0.06-0.06-0.13-0.12-0.19-0.19
			c-0.16-0.16-0.32-0.32-0.48-0.48c-0.05-0.05-0.09-0.1-0.12-0.16c-0.07-0.12-0.13-0.24-0.2-0.36c-0.14-0.25-0.22-0.53-0.28-0.81
			c-0.02-0.08-0.02-0.15-0.02-0.23c0-0.11,0-0.23,0-0.34c0-0.08,0.01-0.15,0.04-0.22c0.03-0.06,0.04-0.13,0.05-0.2
			c0.03-0.22,0.08-0.43,0.14-0.64c0.04-0.17,0.09-0.33,0.14-0.5c0.05-0.17,0.1-0.34,0.16-0.51c0.04-0.12,0.08-0.23,0.13-0.35
			c0.08-0.22,0.18-0.43,0.31-0.63c0.09-0.15,0.2-0.28,0.32-0.4c0.07-0.07,0.15-0.13,0.24-0.18c0.11-0.06,0.23-0.1,0.36-0.11
			c0.08,0,0.16,0,0.24,0C437.22,36.27,437.24,36.27,437.27,36.27C437.27,36.27,437.27,36.27,437.27,36.27z"/>
		<path class="st0" d="M444.72,32.1c-0.51,0-1.01,0-1.52,0c-0.15,0-0.3-0.01-0.45-0.01c-0.04,0-0.08,0-0.12-0.01
			c-0.04-0.01-0.08-0.03-0.11-0.07c-0.08-0.14-0.14-0.28-0.14-0.44c0-0.09-0.02-0.18-0.04-0.27c-0.01-0.03-0.02-0.05-0.03-0.08
			c-0.03-0.09-0.06-0.18-0.07-0.28c-0.01-0.05-0.02-0.09-0.03-0.14c-0.12-0.33-0.24-0.67-0.37-1c-0.04-0.09-0.07-0.19-0.1-0.28
			c-0.01-0.02-0.01-0.04-0.01-0.06c0-0.03,0.02-0.07,0.05-0.07c0.02-0.01,0.04-0.01,0.06-0.01c0.04,0,0.09,0,0.13,0.01
			c0.23,0.03,0.45,0.07,0.68,0.11c0.23,0.04,0.46,0.07,0.69,0.11c0.23,0.04,0.45,0.07,0.68,0.11c0.18,0.03,0.36,0.06,0.54,0.08
			c0.32,0.05,0.64,0.1,0.96,0.16c0.06,0.01,0.11,0.02,0.17,0.03c0.04,0.01,0.08,0.03,0.1,0.06c0.02,0.03,0.04,0.06,0.06,0.09
			c0.04,0.07,0.08,0.15,0.13,0.22c0.28,0.49,0.55,0.98,0.83,1.47c0.02,0.03,0.03,0.06,0.05,0.09c0.01,0.02,0.02,0.05,0.02,0.07
			c0.01,0.04-0.01,0.09-0.06,0.1c-0.04,0.01-0.09,0.01-0.13,0.01c-0.1,0-0.21,0-0.31,0c-0.47,0-0.93,0.01-1.4,0.01
			C444.89,32.09,444.8,32.09,444.72,32.1C444.72,32.1,444.72,32.1,444.72,32.1z"/>
		<path class="st0" d="M432.61,17.08c-0.15,0.02-0.29,0.01-0.44,0.02c-0.09,0-0.18,0.01-0.28,0.01c-0.08,0-0.17,0.01-0.25,0.01
			c-0.13,0.01-0.26,0.01-0.39,0.02c-0.08,0-0.16,0-0.24,0.01c-0.12,0-0.24,0.01-0.36,0.02c-0.05,0-0.1,0-0.16,0.01
			c-0.15,0.01-0.31,0.01-0.46,0.02c-0.1,0-0.19,0-0.29,0c-0.04,0-0.08-0.01-0.12-0.02c-0.05-0.02-0.07-0.05-0.09-0.09
			c-0.01-0.02-0.01-0.04-0.01-0.06c0-0.05,0-0.1,0-0.14c0.02-0.16,0.03-0.33,0.04-0.49c0.01-0.12,0.02-0.24,0.04-0.36
			c0.01-0.08,0.02-0.17,0.03-0.25c0.03-0.26,0.06-0.52,0.1-0.78c0.01-0.07,0.02-0.14,0.03-0.2c0-0.02,0.01-0.03,0.01-0.05
			c0.01-0.04,0.05-0.07,0.1-0.07c0.04,0,0.09,0,0.13,0.02c0.05,0.02,0.09,0.03,0.14,0.05c1.22,0.47,2.44,0.95,3.66,1.42
			c0.52,0.2,1.04,0.4,1.55,0.6c0.06,0.02,0.11,0.04,0.17,0.06c0.03,0.01,0.05,0.04,0.07,0.07c0.01,0.03,0,0.06-0.03,0.07
			c-0.02,0.01-0.04,0.01-0.06,0.01c-0.04,0-0.08,0-0.12,0c-0.13,0.01-0.26,0.01-0.39,0.02c-0.07,0-0.14,0-0.22,0.01
			c-0.13,0.01-0.26,0.01-0.39,0.02c-0.08,0-0.15,0-0.23,0.01c-0.12,0.01-0.25,0.01-0.37,0.02c-0.08,0-0.15,0-0.23,0.01
			c-0.13,0.01-0.27,0.01-0.4,0.02c-0.09,0-0.18,0.01-0.27,0.01C432.8,17.07,432.71,17.08,432.61,17.08z"/>
		<path class="st0" d="M444.06,24.76c-0.17,0-0.36,0.01-0.54,0.01c-0.06,0-0.13,0-0.19-0.01c-0.04-0.01-0.08-0.02-0.1-0.06
			c-0.03-0.05-0.06-0.09-0.09-0.14c-0.21-0.35-0.41-0.7-0.61-1.06c-0.08-0.16-0.16-0.31-0.25-0.47c-0.02-0.03-0.03-0.07-0.05-0.1
			c-0.01-0.03-0.02-0.06-0.01-0.09c0.01-0.05,0.03-0.11,0.04-0.16c0.22-0.84,0.45-1.68,0.67-2.52c0.02-0.07,0.04-0.15,0.07-0.22
			c0.01-0.02,0.02-0.05,0.03-0.07c0.03-0.04,0.09-0.07,0.14-0.06c0.01,0,0.02,0,0.02,0.01c0.09,0.03,0.18,0.06,0.27,0.1
			c0.04,0.01,0.07,0.04,0.09,0.07c0.04,0.05,0.07,0.11,0.09,0.17c0.02,0.07,0.05,0.15,0.07,0.22c0.31,1.06,0.62,2.13,0.93,3.19
			c0.07,0.25,0.15,0.5,0.22,0.75c0.02,0.07,0.03,0.13,0.05,0.2c0.01,0.04,0.01,0.07,0.01,0.11c0,0.04-0.02,0.07-0.06,0.09
			c-0.03,0.01-0.05,0.02-0.08,0.03c-0.03,0.01-0.06,0.01-0.1,0.01C444.49,24.75,444.28,24.76,444.06,24.76z"/>
		<path class="st0" d="M440.87,17.07c0.08,0,0.15-0.01,0.23-0.01c0.17,0,0.35,0,0.52-0.02c0.04,0,0.07,0,0.11,0
			c0.19,0,0.39-0.01,0.58-0.02c0.07-0.01,0.14,0,0.22,0c0.04,0,0.08,0.01,0.12,0.02c0.05,0.01,0.09,0.04,0.11,0.09
			c0.01,0.03,0.02,0.06,0.03,0.09c0.06,0.15,0.1,0.31,0.14,0.46c0.04,0.14,0.08,0.29,0.12,0.43c0.04,0.14,0.04,0.27,0.01,0.41
			c-0.01,0.03-0.01,0.06-0.02,0.09c-0.04,0.15-0.09,0.31-0.13,0.46c-0.01,0.04-0.03,0.08-0.04,0.11c-0.01,0.02-0.02,0.04-0.03,0.05
			c-0.03,0.03-0.06,0.04-0.1,0.04c-0.06-0.01-0.12-0.03-0.17-0.05c-0.11-0.04-0.22-0.08-0.33-0.13c-0.78-0.3-1.56-0.61-2.34-0.91
			c-0.07-0.03-0.15-0.06-0.22-0.09c-0.04-0.02-0.09-0.04-0.13-0.06c-0.07-0.04-0.12-0.09-0.16-0.16c-0.04-0.08-0.09-0.16-0.13-0.24
			c-0.05-0.09-0.1-0.18-0.15-0.28c-0.01-0.03-0.03-0.06-0.04-0.09c-0.01-0.03,0-0.08,0.03-0.1c0.02-0.01,0.04-0.02,0.05-0.02
			c0.02,0,0.03,0,0.05-0.01c0.22-0.01,0.43-0.02,0.65-0.02c0.14-0.01,0.28-0.01,0.42-0.02c0.09,0,0.18,0,0.27-0.01
			C440.65,17.08,440.76,17.08,440.87,17.07C440.87,17.07,440.87,17.07,440.87,17.07z"/>
		<path class="st0" d="M445.99,24.68c-0.16,0-0.32,0.01-0.48,0.01c-0.04,0-0.09,0-0.13-0.02c-0.03-0.01-0.06-0.03-0.07-0.06
			c-0.01-0.03-0.03-0.07-0.04-0.1c-0.07-0.18-0.12-0.37-0.17-0.55c-0.25-0.86-0.51-1.72-0.76-2.58c-0.08-0.27-0.16-0.54-0.24-0.81
			c-0.03-0.09-0.04-0.18-0.06-0.27c0-0.02,0-0.05,0.01-0.07c0.02-0.03,0.05-0.05,0.09-0.05c0.02,0,0.04,0.01,0.06,0.02
			c0.21,0.08,0.42,0.16,0.63,0.24c0.02,0.01,0.04,0.02,0.06,0.02c0.07,0.03,0.13,0.09,0.17,0.15c0.01,0.02,0.02,0.04,0.03,0.06
			c0.19,0.38,0.38,0.76,0.57,1.13c0.11,0.21,0.2,0.43,0.28,0.65c0.14,0.34,0.28,0.68,0.41,1.02c0.08,0.19,0.15,0.39,0.23,0.58
			c0.05,0.12,0.09,0.23,0.11,0.36c0.01,0.04,0.01,0.07,0.02,0.11c0,0.01,0,0.02,0,0.04c0,0.04-0.03,0.07-0.07,0.08
			c-0.05,0.01-0.1,0.02-0.14,0.02c-0.05,0-0.1,0-0.16,0.01C446.22,24.66,446.1,24.67,445.99,24.68
			C445.99,24.68,445.99,24.68,445.99,24.68z"/>
		<path class="st0" d="M432.18,8.93c-0.47,0-0.93,0-1.4,0c-0.08,0-0.16,0-0.24-0.02c-0.08-0.01-0.12-0.05-0.12-0.14
			c0-0.06,0.01-0.11,0.01-0.17c0.01-0.07,0.01-0.14,0.02-0.22c0.02-0.18,0.04-0.35,0.06-0.53c0.02-0.16,0.04-0.33,0.06-0.49
			c0.01-0.04,0.01-0.09,0.03-0.13c0.02-0.06,0.06-0.1,0.13-0.11c0.02,0,0.05-0.01,0.07-0.01c0.08,0,0.15-0.01,0.23-0.01
			c0.3,0,0.6,0,0.89,0c0.08,0,0.16,0.01,0.24,0.03c0.14,0.04,0.28,0.06,0.43,0.06c0.06,0,0.11,0,0.17,0c0.06,0,0.11,0.01,0.17,0.02
			c0.07,0.01,0.13,0.05,0.17,0.1c0.03,0.04,0.05,0.07,0.07,0.11c0.17,0.3,0.34,0.59,0.51,0.89c0.06,0.11,0.12,0.21,0.17,0.32
			c0.02,0.04,0.04,0.08,0.06,0.12c0.01,0.02,0.01,0.04,0.01,0.06c0,0.02-0.01,0.05-0.03,0.06c-0.05,0.02-0.1,0.04-0.15,0.04
			c-0.06,0-0.11,0.01-0.17,0c-0.21,0-0.42,0-0.63,0C432.69,8.93,432.43,8.93,432.18,8.93C432.18,8.93,432.18,8.93,432.18,8.93z"/>
		<path class="st0" d="M444.81,25.04c0.05,0,0.08,0,0.11,0c0.1,0.01,0.17,0.05,0.2,0.14c0.02,0.05,0.03,0.09,0.05,0.14
			c0.09,0.3,0.17,0.59,0.26,0.89c0.3,1.01,0.59,2.01,0.89,3.02c0.03,0.1,0.05,0.19,0.07,0.29c0.01,0.03,0.01,0.06,0.01,0.1
			c0,0.05-0.04,0.08-0.08,0.09c-0.07,0.01-0.14,0.01-0.22-0.01c-0.07-0.02-0.13-0.05-0.17-0.11c-0.03-0.05-0.07-0.1-0.1-0.15
			c-0.1-0.17-0.19-0.34-0.28-0.51c-0.64-1.15-1.28-2.3-1.93-3.45c-0.04-0.07-0.08-0.14-0.1-0.22c-0.01-0.02-0.01-0.04-0.01-0.06
			c-0.01-0.04,0.02-0.08,0.06-0.09c0.02,0,0.03-0.01,0.05-0.01c0.18-0.01,0.35-0.03,0.53-0.03c0.18,0,0.35-0.02,0.53-0.03
			C444.74,25.04,444.78,25.04,444.81,25.04z"/>
		<path class="st0" d="M442.72,19.74c-0.01,0.03-0.02,0.08-0.03,0.12c-0.06,0.23-0.12,0.45-0.18,0.68c-0.15,0.57-0.3,1.13-0.46,1.7
			c-0.01,0.04-0.02,0.08-0.04,0.11c-0.01,0.02-0.03,0.03-0.05,0.03c-0.04,0-0.07-0.01-0.1-0.04c-0.03-0.04-0.05-0.07-0.07-0.11
			c-0.19-0.33-0.37-0.67-0.56-1c-0.44-0.79-0.88-1.58-1.32-2.37c-0.04-0.07-0.08-0.15-0.11-0.23c0-0.02-0.01-0.03-0.01-0.05
			c0-0.03,0.03-0.06,0.06-0.06c0.02,0,0.03,0.01,0.05,0.01c0.05,0.02,0.1,0.04,0.15,0.06c0.78,0.3,1.55,0.6,2.33,0.9
			c0.06,0.02,0.12,0.05,0.18,0.08c0.04,0.02,0.07,0.04,0.1,0.06C442.71,19.64,442.72,19.68,442.72,19.74z"/>
		<path class="st0" d="M445.26,32.38c0.52,0,1.03,0,1.55,0c0.05,0,0.1,0,0.14,0c0.02,0,0.05,0,0.07,0.01
			c0.08,0.02,0.15,0.06,0.19,0.14c0.08,0.14,0.16,0.29,0.21,0.45c0.05,0.16,0.1,0.32,0.14,0.47c0.04,0.13,0.07,0.26,0.11,0.38
			c0.04,0.12,0.05,0.25,0.05,0.38c0,0.04-0.01,0.09-0.01,0.13c0,0.02-0.01,0.03-0.01,0.05c-0.02,0.05-0.06,0.08-0.11,0.08
			c-0.03,0-0.06,0-0.08-0.01c-0.06-0.02-0.11-0.04-0.17-0.07c-0.3-0.14-0.6-0.29-0.91-0.43c-0.95-0.45-1.89-0.9-2.84-1.35
			c-0.05-0.02-0.1-0.05-0.15-0.08c-0.02-0.01-0.05-0.03-0.06-0.06c-0.01-0.02,0-0.05,0.01-0.05c0.01-0.01,0.02-0.01,0.03-0.02
			c0.04-0.01,0.09-0.02,0.13-0.02c0.06,0,0.12,0,0.18,0C444.25,32.38,444.76,32.38,445.26,32.38
			C445.26,32.38,445.26,32.38,445.26,32.38z"/>
		<path class="st0" d="M429.22,29.06c-0.1,0-0.19,0-0.29-0.01c-0.1-0.01-0.2-0.01-0.3-0.03c-0.08-0.01-0.16-0.04-0.23-0.07
			c-0.02-0.01-0.04-0.02-0.05-0.03c-0.05-0.04-0.08-0.08-0.08-0.14c0-0.05,0-0.1,0.01-0.16c0.01-0.13,0.03-0.26,0.04-0.38
			c0.01-0.07,0.02-0.14,0.02-0.22c0.02-0.2,0.04-0.39,0.07-0.59c0-0.02,0-0.03,0.01-0.05c0.01-0.05,0.06-0.09,0.11-0.1
			c0.04,0,0.07,0,0.11,0c0.11,0.01,0.22,0.03,0.32,0.04c0.19,0.03,0.38,0.06,0.57,0.09c0.26,0.04,0.52,0.08,0.77,0.14
			c0.03,0.01,0.06,0.02,0.09,0.03c0.07,0.03,0.1,0.09,0.09,0.17c-0.01,0.03-0.01,0.05-0.02,0.08c-0.06,0.19-0.12,0.37-0.18,0.56
			c-0.04,0.11-0.1,0.21-0.18,0.3c-0.05,0.05-0.1,0.1-0.15,0.16c-0.02,0.02-0.04,0.04-0.06,0.06c-0.09,0.09-0.2,0.13-0.33,0.14
			C429.45,29.06,429.33,29.06,429.22,29.06z"/>
		<path class="st0" d="M435.6,8.93c-0.31,0-0.63,0-0.94,0c-0.08,0-0.17-0.01-0.25-0.02c-0.03-0.01-0.06-0.02-0.08-0.05
			c-0.01-0.01-0.02-0.03-0.02-0.04c-0.14-0.25-0.29-0.5-0.43-0.75c-0.1-0.17-0.19-0.35-0.27-0.54c-0.02-0.04-0.03-0.08-0.05-0.12
			c-0.01-0.02,0.01-0.06,0.04-0.07c0.02,0,0.03-0.01,0.05-0.01c0.25-0.01,0.5,0.01,0.74,0.07c0.1,0.03,0.2,0.05,0.3,0.04
			c0.11,0,0.21,0.03,0.32,0.07c0.11,0.04,0.2,0.1,0.29,0.16c0.19,0.13,0.37,0.25,0.56,0.38c0.17,0.12,0.34,0.23,0.49,0.37
			c0.07,0.06,0.14,0.11,0.21,0.16c0.06,0.04,0.12,0.08,0.17,0.14c0.03,0.03,0.06,0.06,0.07,0.1c0.01,0.03,0.01,0.06-0.03,0.08
			c-0.01,0.01-0.02,0.01-0.03,0.01c-0.05,0.01-0.09,0.02-0.14,0.02c-0.1,0-0.19,0-0.29,0C436.07,8.93,435.83,8.93,435.6,8.93
			C435.6,8.93,435.6,8.93,435.6,8.93z"/>
		<path class="st0" d="M426.95,25.5c0.23,0.01,0.46,0.02,0.69,0c0.19-0.01,0.36,0.05,0.52,0.15c0.06,0.04,0.09,0.09,0.09,0.16
			c0,0.05,0,0.1-0.01,0.16c-0.01,0.12-0.03,0.23-0.04,0.35c-0.02,0.14-0.03,0.27-0.05,0.41c0,0.02-0.01,0.04-0.01,0.06
			c-0.02,0.06-0.08,0.1-0.14,0.09c-0.05,0-0.1-0.01-0.14-0.02c-0.24-0.04-0.49-0.07-0.73-0.11c-0.24-0.04-0.48-0.07-0.72-0.11
			c-0.1-0.01-0.19-0.03-0.29-0.05c-0.02,0-0.04-0.01-0.06-0.01c-0.1-0.03-0.15-0.09-0.16-0.19c0-0.02,0-0.04,0-0.06
			c0-0.19,0-0.37,0-0.56c0-0.03,0-0.06,0.01-0.08c0-0.02,0.01-0.04,0.01-0.06c0.02-0.06,0.06-0.1,0.12-0.11
			c0.08-0.01,0.15-0.02,0.23-0.02c0.13,0,0.26,0,0.39,0C426.75,25.5,426.85,25.5,426.95,25.5z"/>
		<path class="st0" d="M430.28,27.23c-0.06-0.01-0.11-0.01-0.17-0.02c-0.29-0.04-0.57-0.09-0.86-0.13
			c-0.16-0.02-0.32-0.05-0.48-0.07c-0.06-0.01-0.12-0.03-0.17-0.05c-0.07-0.03-0.1-0.09-0.1-0.16c0-0.03,0-0.06,0.01-0.08
			c0.01-0.07,0.01-0.14,0.02-0.22c0.02-0.15,0.03-0.3,0.05-0.46c0-0.01,0-0.02,0-0.02c0.01-0.06,0.07-0.1,0.13-0.09
			c0.04,0,0.08,0.01,0.12,0.03c0.03,0.01,0.05,0.02,0.08,0.03c0.47,0.22,0.93,0.44,1.4,0.66c0.03,0.01,0.06,0.03,0.09,0.04
			c0.03,0.02,0.07,0.05,0.09,0.07c0.04,0.04,0.06,0.09,0.07,0.15c0.01,0.06,0,0.13-0.01,0.19c0,0.01-0.01,0.02-0.01,0.03
			c-0.02,0.04-0.05,0.07-0.1,0.08C430.37,27.22,430.32,27.23,430.28,27.23z"/>
		<path class="st0" d="M443.59,17.99c0.05,0,0.08,0.02,0.11,0.06c0.02,0.03,0.04,0.06,0.06,0.09c0.11,0.21,0.22,0.42,0.33,0.63
			c0.17,0.33,0.33,0.67,0.49,1.01c0.02,0.04,0.03,0.07,0.05,0.11c0.01,0.03,0,0.06-0.03,0.07c-0.02,0.01-0.04,0.01-0.06,0.01
			c-0.02,0-0.05-0.01-0.07-0.02c-0.17-0.07-0.34-0.13-0.51-0.2c-0.01-0.01-0.03-0.01-0.04-0.02c-0.02-0.01-0.04-0.03-0.05-0.05
			c-0.01-0.03-0.03-0.07-0.04-0.1c-0.08-0.2-0.14-0.41-0.2-0.62c-0.05-0.17-0.1-0.35-0.15-0.52c-0.01-0.02-0.01-0.05-0.02-0.07
			c-0.01-0.04-0.01-0.09,0-0.13c0.02-0.07,0.04-0.13,0.07-0.19c0.01-0.01,0.01-0.02,0.02-0.03C443.57,18,443.58,18,443.59,17.99z"/>
		<path class="st0" d="M442.07,24.85c-0.04,0-0.09,0-0.13,0c-0.04,0-0.07-0.01-0.11-0.02c-0.06-0.02-0.09-0.07-0.09-0.13
			c0-0.03,0.01-0.06,0.01-0.08c0.04-0.17,0.08-0.34,0.12-0.5c0.04-0.14,0.08-0.29,0.13-0.43c0.01-0.04,0.03-0.08,0.04-0.11
			c0.01-0.01,0.01-0.03,0.02-0.04c0.02-0.02,0.06-0.03,0.09-0.01c0.01,0.01,0.02,0.02,0.03,0.04c0.02,0.02,0.03,0.05,0.04,0.07
			c0.17,0.31,0.35,0.63,0.52,0.94c0.01,0.02,0.03,0.05,0.04,0.08c0.01,0.01,0.01,0.03,0.01,0.05c0.01,0.04-0.01,0.08-0.04,0.09
			c-0.01,0.01-0.03,0.02-0.04,0.02c-0.06,0.01-0.12,0.02-0.18,0.03c-0.13,0.01-0.26,0.02-0.39,0.02
			C442.13,24.85,442.1,24.85,442.07,24.85C442.07,24.85,442.07,24.85,442.07,24.85z"/>
		<path class="st0" d="M429.58,25.5c0.23,0,0.41,0,0.6,0c0.07,0,0.14,0,0.2,0.02c0.02,0,0.03,0.01,0.05,0.01
			c0.04,0.01,0.08,0.04,0.09,0.09c0.01,0.02,0.01,0.04,0.01,0.06c0,0.02,0,0.05,0,0.07c0,0.11,0,0.22,0,0.33
			c0,0.06-0.01,0.11-0.02,0.17c-0.01,0.05-0.06,0.09-0.12,0.08c-0.04-0.01-0.07-0.02-0.1-0.03c-0.03-0.01-0.05-0.02-0.08-0.03
			c-0.4-0.19-0.8-0.38-1.2-0.57c-0.04-0.02-0.07-0.04-0.11-0.06c-0.01-0.01-0.02-0.02-0.03-0.03c-0.01-0.02,0-0.05,0.02-0.06
			c0.01-0.01,0.02-0.01,0.03-0.01c0.03,0,0.06,0,0.1-0.01C429.22,25.5,429.42,25.5,429.58,25.5z"/>
		<path class="st0" d="M438.8,17.72c-0.01,0-0.03,0-0.06-0.01c-0.02-0.01-0.05-0.02-0.07-0.02c-0.29-0.12-0.59-0.23-0.88-0.35
			c-0.03-0.01-0.07-0.03-0.1-0.05c-0.01-0.01-0.02-0.02-0.02-0.04c0-0.02,0.01-0.03,0.03-0.03c0.01,0,0.02-0.01,0.03-0.01
			c0.16-0.02,0.31-0.03,0.47-0.05c0.08-0.01,0.17,0,0.25,0c0.02,0,0.05,0.01,0.07,0.01c0.05,0.01,0.08,0.03,0.11,0.07
			c0.08,0.1,0.14,0.21,0.2,0.33c0.02,0.03,0.03,0.06,0.03,0.09C438.88,17.69,438.85,17.72,438.8,17.72z"/>
		<path class="st0" d="M426.49,25.18c-0.12,0-0.24,0-0.36-0.01c-0.04,0-0.09-0.01-0.13-0.02c-0.03-0.01-0.06-0.03-0.07-0.06
			c0-0.01-0.01-0.02-0.01-0.03c-0.03-0.11-0.02-0.22,0.01-0.33c0.01-0.04,0.05-0.06,0.08-0.06c0.04,0,0.09,0.01,0.13,0.03
			c0.03,0.01,0.05,0.02,0.08,0.03c0.2,0.1,0.4,0.19,0.6,0.29c0.03,0.02,0.06,0.03,0.09,0.05c0.01,0.01,0.02,0.03,0.02,0.04
			c0.01,0.02-0.01,0.05-0.03,0.06c-0.02,0-0.05,0.01-0.07,0.01C426.72,25.17,426.6,25.17,426.49,25.18
			C426.49,25.17,426.49,25.17,426.49,25.18z"/>
		<path class="st0" d="M446.39,30.01c0.02,0,0.05,0,0.07,0.01c0.04,0.01,0.07,0.03,0.08,0.06c0.01,0.02,0.02,0.04,0.03,0.05
			c0.09,0.22,0.16,0.44,0.21,0.68c0.01,0.06,0.02,0.12,0.03,0.18c0,0.01,0,0.02,0,0.02c0,0.01-0.01,0.01-0.02,0.01
			c-0.01,0-0.02,0-0.02-0.01c-0.01-0.02-0.02-0.03-0.03-0.05c-0.15-0.25-0.29-0.51-0.44-0.76c-0.01-0.02-0.02-0.04-0.03-0.06
			c-0.02-0.06,0.01-0.12,0.07-0.13C446.35,30.01,446.37,30.01,446.39,30.01z"/>
		<path class="st0" d="M443.18,19.32c0-0.06,0.01-0.11,0.03-0.16c0.01-0.01,0.02-0.03,0.03-0.04c0.02-0.03,0.06-0.03,0.09,0
			c0.01,0.01,0.02,0.02,0.02,0.03c0.01,0.02,0.02,0.04,0.03,0.07c0.01,0.05,0.02,0.1,0.03,0.15c0,0.02,0,0.03,0,0.05
			c-0.01,0.05-0.06,0.08-0.11,0.07c-0.02-0.01-0.04-0.01-0.06-0.02c-0.03-0.02-0.05-0.05-0.06-0.09
			C443.19,19.35,443.19,19.34,443.18,19.32z"/>
		<path class="st0" d="M443.3,17.43c0,0.01-0.01,0.03-0.01,0.06c0,0.01-0.03,0.02-0.04,0.01c-0.01-0.01-0.01-0.01-0.02-0.02
			c-0.05-0.08-0.08-0.17-0.08-0.27c0-0.01,0-0.02,0.01-0.03c0-0.01,0.03-0.02,0.04-0.01c0.01,0,0.01,0.01,0.02,0.01
			c0.06,0.06,0.09,0.13,0.09,0.22C443.3,17.4,443.3,17.41,443.3,17.43z"/>
	</g>
	<g>
		<path class="st0" d="M39.7,23.74l-0.84-1.62h-4.37l-0.84,1.62h-3.21l6.24-11.59l6.22,11.59H39.7z M37.74,19.94l-1.05-2.03
			l-1.07,2.03H37.74z"/>
		<path class="st0" d="M47.97,11.34v12.4h-2.5v-12.4H47.97z"/>
		<path class="st0" d="M53.4,11.34v12.4h-2.5v-12.4H53.4z"/>
		<path class="st0" d="M65.31,15.93c0.2-0.57,0.54-0.97,1.02-1.19c0.46-0.23,1.16-0.34,2.09-0.34v2.55c-0.9,0-1.66,0.31-2.27,0.93
			c-0.56,0.55-0.84,1.15-0.84,1.8v4.07h-2.5v-9.19h2.5V15.93z"/>
		<path class="st0" d="M73.55,11.31v2.1h-2.48v-2.1H73.55z M73.57,14.57v9.17h-2.5v-9.17H73.57z"/>
		<path class="st0" d="M83.34,14.54h2.34v9.19c0,1.26-0.45,2.34-1.34,3.23c-0.88,0.89-1.95,1.34-3.21,1.36
			c-1.18,0.01-2.21-0.38-3.09-1.16c-0.87-0.76-1.37-1.72-1.5-2.87h2.35c0.08,0.38,0.29,0.73,0.61,1.05
			c0.44,0.44,0.98,0.66,1.61,0.66c0.63,0,1.16-0.23,1.59-0.68c0.44-0.44,0.66-0.97,0.66-1.59l-0.02-0.91
			c-0.61,0.61-1.34,0.91-2.21,0.91c-1.27,0.01-2.36-0.43-3.26-1.32c-0.9-0.89-1.36-1.97-1.36-3.25c-0.01-1.27,0.43-2.35,1.32-3.25
			c0.89-0.9,1.97-1.36,3.25-1.37c1.01,0,1.77,0.32,2.27,0.95V14.54z M83.34,18.87c-0.05-0.52-0.27-0.97-0.66-1.36
			c-0.45-0.43-0.99-0.64-1.6-0.64c-0.62,0-1.15,0.22-1.59,0.66c-0.44,0.46-0.66,1-0.66,1.61c0,0.62,0.23,1.15,0.68,1.61
			c0.44,0.44,0.98,0.66,1.61,0.66c0.64-0.02,1.17-0.25,1.59-0.68c0.37-0.37,0.58-0.81,0.64-1.32V18.87z"/>
		<path class="st0" d="M97.97,23.74h-2.32v-4.53h-0.02v-0.05c0-0.62-0.22-1.15-0.66-1.59c-0.44-0.44-0.98-0.66-1.6-0.66
			c-0.62,0-1.15,0.23-1.61,0.68c-0.45,0.45-0.67,0.99-0.64,1.61v0.02H91.1v4.53h-2.5V12.15h2.5v3.57c0.56-0.67,1.31-1.04,2.25-1.12
			c1.31-0.11,2.39,0.23,3.25,1.02c0.92,0.84,1.37,2.03,1.37,3.55V23.74z"/>
		<path class="st0" d="M106.89,14.55v2.5h-2.05v6.69h-2.5v-6.69h-2.07v-2.5h2.07v-3.21h2.5v3.21H106.89z"/>
		<path class="st0" d="M111.9,23.45c-0.37-0.13-0.75-0.38-1.14-0.73c-0.68-0.63-0.99-1.43-0.93-2.39v-0.2l2,0.04h0.16v0.14
			c0.01,0.3,0.08,0.54,0.2,0.73c0.2,0.34,0.65,0.52,1.34,0.52c0.57,0,0.98-0.07,1.23-0.2c0.13-0.06,0.22-0.14,0.27-0.23
			c0.02-0.04,0.04-0.07,0.04-0.11l0.02-0.09c0-0.25-0.2-0.45-0.59-0.61c-0.15-0.06-0.33-0.11-0.54-0.14
			c-0.15-0.04-0.33-0.06-0.52-0.09c-0.71-0.07-1.31-0.21-1.78-0.43c-0.48-0.19-0.87-0.45-1.18-0.79c-0.43-0.49-0.64-1.05-0.64-1.68
			c0-0.39,0.07-0.75,0.21-1.09c0.11-0.26,0.25-0.49,0.43-0.7c0.64-0.74,1.67-1.11,3.09-1.11c0.84,0,1.56,0.17,2.14,0.5
			c0.45,0.25,0.81,0.59,1.09,1.02c0.21,0.32,0.36,0.7,0.45,1.12c0.02,0.14,0.04,0.28,0.05,0.41v0.37h-2.16v-0.27
			c-0.01-0.05-0.02-0.09-0.02-0.14c-0.04-0.13-0.08-0.24-0.14-0.32c-0.26-0.36-0.73-0.53-1.41-0.53c-1,0-1.5,0.21-1.5,0.62
			c0,0.21,0.12,0.39,0.36,0.52c0.25,0.16,0.67,0.27,1.27,0.34c1.37,0.14,2.36,0.58,2.98,1.3c0.42,0.49,0.62,1.05,0.62,1.68v0.12
			l-0.02,0.16c0,0.15-0.02,0.3-0.05,0.43c-0.1,0.38-0.27,0.72-0.54,1.02c-0.3,0.36-0.71,0.62-1.25,0.8s-1.17,0.27-1.91,0.27
			C112.9,23.74,112.36,23.65,111.9,23.45z"/>
		<path class="st0" d="M129.2,15.93c0.2-0.57,0.54-0.97,1.02-1.19c0.46-0.23,1.16-0.34,2.09-0.34v2.55c-0.9,0-1.66,0.31-2.27,0.93
			c-0.56,0.55-0.84,1.15-0.84,1.8v4.07h-2.5v-9.19h2.5V15.93z"/>
		<path class="st0" d="M143.38,19.55c0.01,0.25,0.01,0.4,0,0.45l-6.71-0.02c0.1,0.27,0.27,0.54,0.52,0.79c0.46,0.44,1,0.66,1.6,0.66
			c0.64-0.02,1.18-0.25,1.61-0.68l0.07-0.07l2.32,0.73c-0.51,0.8-1.05,1.37-1.6,1.71c-0.63,0.4-1.42,0.61-2.37,0.62
			c-1.26,0.01-2.34-0.43-3.25-1.32c-0.9-0.89-1.36-1.97-1.37-3.25c-0.01-1.26,0.43-2.34,1.32-3.25c0.89-0.9,1.97-1.36,3.25-1.37
			c1.26-0.01,2.34,0.43,3.25,1.32c0.9,0.89,1.36,1.97,1.37,3.25V19.55z M137.17,17.55c-0.23,0.25-0.39,0.5-0.48,0.75h4.19
			c-0.1-0.25-0.26-0.5-0.5-0.77c-0.45-0.43-0.99-0.64-1.6-0.64C138.15,16.89,137.61,17.11,137.17,17.55z"/>
		<path class="st0" d="M148.05,23.45c-0.37-0.13-0.75-0.38-1.14-0.73c-0.68-0.63-0.99-1.43-0.93-2.39v-0.2l2,0.04h0.16v0.14
			c0.01,0.3,0.08,0.54,0.2,0.73c0.2,0.34,0.65,0.52,1.34,0.52c0.57,0,0.98-0.07,1.23-0.2c0.13-0.06,0.22-0.14,0.27-0.23
			c0.02-0.04,0.04-0.07,0.04-0.11l0.02-0.09c0-0.25-0.2-0.45-0.59-0.61c-0.15-0.06-0.33-0.11-0.54-0.14
			c-0.15-0.04-0.33-0.06-0.52-0.09c-0.71-0.07-1.31-0.21-1.78-0.43c-0.48-0.19-0.87-0.45-1.18-0.79c-0.43-0.49-0.64-1.05-0.64-1.68
			c0-0.39,0.07-0.75,0.21-1.09c0.11-0.26,0.25-0.49,0.43-0.7c0.64-0.74,1.67-1.11,3.09-1.11c0.84,0,1.56,0.17,2.14,0.5
			c0.45,0.25,0.81,0.59,1.09,1.02c0.21,0.32,0.36,0.7,0.45,1.12c0.02,0.14,0.04,0.28,0.05,0.41v0.37h-2.16v-0.27
			c-0.01-0.05-0.02-0.09-0.02-0.14c-0.04-0.13-0.08-0.24-0.14-0.32c-0.26-0.36-0.73-0.53-1.41-0.53c-1,0-1.5,0.21-1.5,0.62
			c0,0.21,0.12,0.39,0.36,0.52c0.25,0.16,0.67,0.27,1.27,0.34c1.37,0.14,2.36,0.58,2.98,1.3c0.42,0.49,0.62,1.05,0.62,1.68v0.12
			l-0.02,0.16c0,0.15-0.02,0.3-0.05,0.43c-0.1,0.38-0.27,0.72-0.54,1.02c-0.3,0.36-0.71,0.62-1.25,0.8s-1.17,0.27-1.91,0.27
			C149.06,23.74,148.52,23.65,148.05,23.45z"/>
		<path class="st0" d="M165.21,19.55c0.01,0.25,0.01,0.4,0,0.45l-6.71-0.02c0.1,0.27,0.27,0.54,0.52,0.79c0.46,0.44,1,0.66,1.6,0.66
			c0.64-0.02,1.18-0.25,1.61-0.68l0.07-0.07l2.32,0.73c-0.51,0.8-1.05,1.37-1.6,1.71c-0.63,0.4-1.42,0.61-2.37,0.62
			c-1.26,0.01-2.34-0.43-3.25-1.32c-0.9-0.89-1.36-1.97-1.37-3.25c-0.01-1.26,0.43-2.34,1.32-3.25c0.89-0.9,1.97-1.36,3.25-1.37
			c1.26-0.01,2.34,0.43,3.25,1.32c0.9,0.89,1.36,1.97,1.37,3.25V19.55z M159,17.55c-0.23,0.25-0.39,0.5-0.48,0.75h4.19
			c-0.1-0.25-0.26-0.5-0.5-0.77c-0.45-0.43-0.99-0.64-1.6-0.64C159.98,16.89,159.44,17.11,159,17.55z"/>
		<path class="st0" d="M170.29,15.93c0.2-0.57,0.54-0.97,1.02-1.19c0.46-0.23,1.16-0.34,2.09-0.34v2.55c-0.9,0-1.66,0.31-2.27,0.93
			c-0.56,0.55-0.84,1.15-0.84,1.8v4.07h-2.5v-9.19h2.5V15.93z"/>
		<path class="st0" d="M186.67,14.55l-4.26,9.19h-1.89l-4.46-9.19h2.91l2.5,5.14l2.32-5.14H186.67z"/>
		<path class="st0" d="M196.98,19.55c0.01,0.25,0.01,0.4,0,0.45l-6.71-0.02c0.1,0.27,0.27,0.54,0.52,0.79c0.46,0.44,1,0.66,1.6,0.66
			c0.64-0.02,1.18-0.25,1.61-0.68l0.07-0.07l2.32,0.73c-0.51,0.8-1.05,1.37-1.6,1.71c-0.63,0.4-1.42,0.61-2.37,0.62
			c-1.26,0.01-2.34-0.43-3.25-1.32c-0.9-0.89-1.36-1.97-1.37-3.25c-0.01-1.26,0.43-2.34,1.32-3.25c0.89-0.9,1.97-1.36,3.25-1.37
			c1.26-0.01,2.34,0.43,3.25,1.32c0.9,0.89,1.36,1.97,1.37,3.25V19.55z M190.77,17.55c-0.23,0.25-0.39,0.5-0.48,0.75h4.19
			c-0.1-0.25-0.26-0.5-0.5-0.77c-0.45-0.43-0.99-0.64-1.6-0.64C191.74,16.89,191.21,17.11,190.77,17.55z"/>
		<path class="st0" d="M206.95,23.74v-1.05c-0.86,0.7-1.83,1.05-2.91,1.05c-1.26,0.01-2.34-0.43-3.25-1.32
			c-0.9-0.89-1.36-1.97-1.37-3.25c-0.01-1.26,0.43-2.34,1.32-3.25c0.89-0.9,1.97-1.36,3.25-1.37c1.11,0,2.09,0.35,2.94,1.05v-4.32
			h2.5l0.02,12.45H206.95z M206.29,19.14c-0.02-0.64-0.25-1.18-0.68-1.61c-0.45-0.43-0.99-0.64-1.6-0.64
			c-0.63,0-1.17,0.22-1.61,0.66c-0.44,0.49-0.65,1.02-0.64,1.61c0,0.63,0.22,1.17,0.66,1.61c0.44,0.44,0.97,0.66,1.6,0.66
			c0.64-0.02,1.18-0.25,1.61-0.68C206.07,20.3,206.29,19.77,206.29,19.14z"/>
		<path class="st0" d="M225.48,14.55v2.5h-2.05v6.69h-2.5v-6.69h-2.07v-2.5h2.07v-3.21h2.5v3.21H225.48z"/>
		<path class="st0" d="M235.34,15.87c0.9,0.9,1.36,1.99,1.36,3.25c0.01,1.27-0.43,2.35-1.32,3.25c-0.89,0.9-1.97,1.36-3.23,1.37
			c-1.27,0.01-2.36-0.43-3.26-1.32c-0.9-0.89-1.36-1.97-1.36-3.25c-0.01-1.27,0.43-2.35,1.32-3.25c0.89-0.9,1.97-1.36,3.25-1.37
			C233.37,14.54,234.45,14.98,235.34,15.87z M234.38,19.14c0-0.62-0.23-1.15-0.68-1.61c-0.45-0.43-0.99-0.64-1.61-0.64
			s-1.15,0.22-1.59,0.66c-0.44,0.46-0.66,1-0.66,1.61c0,0.62,0.23,1.15,0.68,1.61c0.44,0.44,0.97,0.66,1.6,0.66
			c0.64-0.02,1.17-0.25,1.59-0.68C234.16,20.3,234.38,19.77,234.38,19.14z"/>
		<path class="st0" d="M247.72,19.19v2.05h5.32v2.5h-8.1V12.15h8.1v2.5h-5.32v2.05h4.51v2.5H247.72z"/>
		<path class="st0" d="M258.46,11.34v12.4h-2.5v-12.4H258.46z"/>
		<path class="st0" d="M270.23,19.55c0.01,0.25,0.01,0.4,0,0.45l-6.71-0.02c0.1,0.27,0.27,0.54,0.52,0.79c0.46,0.44,1,0.66,1.6,0.66
			c0.64-0.02,1.18-0.25,1.61-0.68l0.07-0.07l2.32,0.73c-0.51,0.8-1.05,1.37-1.6,1.71c-0.63,0.4-1.42,0.61-2.37,0.62
			c-1.26,0.01-2.34-0.43-3.25-1.32c-0.9-0.89-1.36-1.97-1.37-3.25c-0.01-1.26,0.43-2.34,1.32-3.25c0.89-0.9,1.97-1.36,3.25-1.37
			c1.26-0.01,2.34,0.43,3.25,1.32c0.9,0.89,1.36,1.97,1.37,3.25V19.55z M264.02,17.55c-0.23,0.25-0.39,0.5-0.48,0.75h4.19
			c-0.1-0.25-0.26-0.5-0.5-0.77c-0.45-0.43-0.99-0.64-1.6-0.64C264.99,16.89,264.46,17.11,264.02,17.55z"/>
		<path class="st0" d="M280.84,15.87c0.9,0.89,1.36,1.97,1.37,3.25c0.01,1.26-0.43,2.34-1.32,3.25c-0.89,0.9-1.97,1.36-3.25,1.37
			c-1.03,0-1.81-0.33-2.34-0.98v4.41h-2.5V14.57h2.5v0.96c0.49-0.63,1.25-0.96,2.28-0.98C278.85,14.54,279.94,14.98,280.84,15.87z
			 M279.88,19.14c0-0.63-0.22-1.17-0.66-1.61c-0.45-0.43-0.99-0.64-1.6-0.64c-0.63,0-1.17,0.22-1.61,0.66
			c-0.44,0.46-0.66,1-0.66,1.61c0.02,0.64,0.25,1.18,0.68,1.61c0.44,0.44,0.97,0.66,1.6,0.66c0.64-0.02,1.18-0.25,1.61-0.68
			C279.69,20.29,279.9,19.76,279.88,19.14z"/>
		<path class="st0" d="M294.25,23.74h-2.32v-4.53h-0.02v-0.05c0-0.62-0.22-1.15-0.66-1.59c-0.44-0.44-0.98-0.66-1.6-0.66
			c-0.62,0-1.15,0.23-1.61,0.68c-0.45,0.45-0.67,0.99-0.64,1.61v0.02h-0.02v4.53h-2.5V12.15h2.5v3.57c0.56-0.67,1.31-1.04,2.25-1.12
			c1.31-0.11,2.39,0.23,3.25,1.02c0.92,0.84,1.37,2.03,1.37,3.55V23.74z"/>
		<path class="st0" d="M303.78,14.52h2.5v9.22h-2.5v-1.03c-0.51,0.67-1.28,1-2.32,1c-1.26,0.01-2.34-0.43-3.25-1.32
			c-0.9-0.89-1.36-1.97-1.37-3.25c-0.01-1.26,0.43-2.34,1.32-3.25c0.89-0.9,1.97-1.36,3.25-1.37c1.05,0,1.84,0.34,2.37,1.02V14.52z
			 M303.69,19.1c0-0.64-0.23-1.18-0.68-1.6c-0.45-0.45-0.98-0.67-1.59-0.64c-0.63,0-1.17,0.22-1.61,0.66s-0.66,0.97-0.66,1.61
			c0,0.62,0.23,1.15,0.68,1.6c0.44,0.44,0.97,0.66,1.6,0.66c0.64-0.02,1.17-0.25,1.59-0.68C303.47,20.27,303.69,19.73,303.69,19.1z"
			/>
		<path class="st0" d="M317.01,15.61c0.92,0.84,1.37,2.03,1.37,3.55v4.58h-2.32v-4.53h-0.02v-0.04c0-0.63-0.22-1.17-0.66-1.6
			c-0.44-0.44-0.98-0.66-1.6-0.66c-0.64,0.02-1.18,0.25-1.61,0.68c-0.45,0.45-0.67,0.99-0.64,1.61v0.02h-0.02v4.53h-2.5v-9.22h2.5
			v1.2c0.56-0.67,1.31-1.04,2.25-1.12C315.07,14.48,316.15,14.82,317.01,15.61z"/>
		<path class="st0" d="M327.02,14.55v2.5h-2.05v6.69h-2.5v-6.69h-2.07v-2.5h2.07v-3.21h2.5v3.21H327.02z"/>
		<path class="st0" d="M337.74,23.42c-0.48-0.19-0.96-0.5-1.46-0.95c-0.57-0.52-0.93-1.17-1.09-1.94c-0.06-0.25-0.09-0.5-0.09-0.75
			c-0.01-0.08-0.01-0.17,0-0.25v-0.13l2.44,0.04v-0.02c0,0.44,0.1,0.8,0.29,1.09c0.36,0.54,1.02,0.8,1.98,0.8
			c1.55,0,2.32-0.36,2.32-1.09c0-0.7-0.8-1.14-2.39-1.32c-0.92-0.11-1.7-0.3-2.35-0.57c-0.61-0.25-1.1-0.58-1.48-1
			c-0.54-0.59-0.8-1.28-0.8-2.07c0-0.49,0.09-0.95,0.27-1.37c0.13-0.32,0.31-0.61,0.54-0.87c0.83-0.94,2.15-1.41,3.96-1.41
			c1.08,0,2,0.21,2.75,0.64c0.57,0.32,1.04,0.75,1.39,1.28c0.26,0.4,0.45,0.87,0.55,1.39c0.04,0.18,0.06,0.36,0.07,0.53
			c0.01,0.06,0.02,0.12,0.02,0.18v0.11h-2.44v0.02c0.01-0.36-0.08-0.66-0.27-0.91c-0.38-0.53-1.07-0.8-2.07-0.8
			c-0.61,0-1.11,0.08-1.5,0.23c-0.49,0.19-0.73,0.46-0.73,0.82c0,0.74,0.79,1.2,2.37,1.37c1.78,0.2,3.07,0.75,3.85,1.66
			c0.52,0.62,0.78,1.31,0.78,2.09v0.16c0,0.07-0.01,0.14-0.02,0.21c-0.01,0.19-0.04,0.37-0.07,0.53c-0.12,0.48-0.34,0.9-0.68,1.27
			c-0.39,0.44-0.92,0.78-1.59,1.02c-0.67,0.23-1.49,0.34-2.48,0.34C339.02,23.76,338.33,23.65,337.74,23.42z"/>
		<path class="st0" d="M353.9,23.74l-2.98-3.57l-0.86,0.84v2.73h-2.5v-12.4h2.5v6.14l2.92-2.92l3.53,0.02l-3.85,3.83l4.55,5.33
			H353.9z"/>
		<path class="st0" d="M362.3,11.31v2.1h-2.48v-2.1H362.3z M362.31,14.57v9.17h-2.5v-9.17H362.31z"/>
		<path class="st0" d="M373.05,15.61c0.92,0.84,1.37,2.03,1.37,3.55v4.58h-2.32v-4.53h-0.02v-0.04c0-0.63-0.22-1.17-0.66-1.6
			c-0.44-0.44-0.98-0.66-1.61-0.66c-0.64,0.02-1.18,0.25-1.61,0.68c-0.45,0.45-0.67,0.99-0.64,1.61v0.02h-0.02v4.53h-2.5v-9.22h2.5
			v1.2c0.56-0.67,1.31-1.04,2.25-1.12C371.11,14.48,372.2,14.82,373.05,15.61z"/>
		<path class="st0" d="M385.61,21.24h5.58v2.5h-8.37V12.15h2.78V21.24z"/>
		<path class="st0" d="M396.58,21.24h5.58v2.5h-8.37V12.15h2.78V21.24z"/>
		<path class="st0" d="M413.32,22.28c-1.13,0.94-2.42,1.41-3.87,1.41c-1.64,0-3.04-0.58-4.21-1.75c-1.17-1.17-1.75-2.57-1.75-4.21
			c0-1.65,0.58-3.06,1.75-4.23c1.17-1.17,2.57-1.75,4.21-1.75c1.46,0,2.75,0.48,3.87,1.43l-1.78,1.77c-0.61-0.46-1.3-0.7-2.09-0.7
			c-0.95,0-1.77,0.34-2.44,1.02s-1.02,1.5-1.02,2.46c0,0.95,0.34,1.77,1.02,2.44s1.49,1.02,2.44,1.02c0.79,0,1.48-0.23,2.09-0.7
			L413.32,22.28z"/>
	</g>
	<g>
		<path class="st0" d="M7.06,17.8c0-5.02,3.9-9,9.02-9c5.12,0,8.97,3.87,8.97,8.94s-3.95,9.05-9.02,9.05
			C10.96,26.8,7.06,22.82,7.06,17.8z M23.86,17.75c0-4.43-3.29-7.8-7.77-7.8s-7.82,3.47-7.82,7.85s3.34,7.85,7.77,7.85
			C20.47,25.65,23.86,22.19,23.86,17.75z M10.96,17.8c0-3.08,2.22-5.25,5.35-5.25c1.81,0,3.31,0.82,4.13,2.06l-1.45,1.04
			c-0.64-0.94-1.61-1.38-2.7-1.38c-1.94,0-3.41,1.38-3.41,3.52s1.48,3.52,3.41,3.52c1.1,0,2.06-0.43,2.7-1.38l1.45,1.02
			c-0.82,1.27-2.32,2.09-4.13,2.09C13.18,23.05,10.96,20.89,10.96,17.8z"/>
	</g>
</g>
</svg>
